<?xml version="1.0" encoding="utf-8"?>
<svg version="1.1" id="Layer_1" xmlns="http://www.w3.org/2000/svg" xmlns:xlink="http://www.w3.org/1999/xlink" x="0px" y="0px" viewBox="0 0 500 111" style="enable-background:new 0 0 500 111;" xml:space="preserve">
<g class="alt-house-logo">
	<path d="M56.06,64.28l-7.92-18.76H14.65L6.74,64.28H1l26.53-62.5h7.74l26.53,62.5H56.06z M16.57,40.96h29.66L31.4,5.48
	L16.57,40.96z"/>
	<polygon points="70.56,64.28 70.56,1.78 75.71,1.78 75.71,59.43 110.98,59.43 110.98,64.28 	"/>
	<polygon points="128.21,64.28 128.21,6.64 105.64,6.64 105.64,1.78 155.93,1.78 155.93,6.64 133.36,6.64 133.36,64.28 
	"/>
	<polygon points="238.52,64.28 238.52,35.46 198.72,35.46 198.72,64.28 193.57,64.28 193.57,1.78 198.72,1.78 
	198.72,30.51 238.52,30.51 238.52,1.78 243.67,1.78 243.67,64.28 	"/>
	<path d="M287.13,65.07c-9.29,0-17.01-3.14-22.96-9.34c-5.83-6.02-8.78-13.65-8.78-22.7s2.95-16.68,8.78-22.69
	C270.12,4.14,277.84,1,287.13,1c9.29,0,17.01,3.14,22.95,9.34c5.83,6.02,8.78,13.65,8.78,22.7s-2.95,16.68-8.78,22.69
	C304.14,61.92,296.41,65.07,287.13,65.07z M287.13,5.95c-7.96,0-14.51,2.65-19.46,7.86c-4.74,5.01-7.14,11.48-7.14,19.22
	s2.4,14.21,7.14,19.22c4.95,5.22,11.49,7.86,19.46,7.86c7.96,0,14.51-2.65,19.45-7.86c4.74-5.01,7.14-11.47,7.14-19.22
	s-2.4-14.21-7.14-19.22C301.64,8.6,295.09,5.95,287.13,5.95z"/>
	<path d="M356.18,65.07c-7.73,0-14.13-2.54-19-7.54c-4.88-5.01-7.36-11.74-7.36-20V1.78h5.15v35.94
	c0,7.25,2.22,13.01,6.6,17.11c3.78,3.51,8.69,5.28,14.62,5.28c5.92,0,10.87-1.77,14.71-5.27c4.39-4.05,6.61-9.81,6.61-17.13V1.78
	h5.15v35.74c0,8.26-2.48,14.99-7.36,20C370.41,62.53,363.98,65.07,356.18,65.07z"/>
	<path d="M419.75,65.07c-8.76,0-15.5-1.83-20.04-5.43c-3.7-2.96-5.95-7.17-6.68-12.52h5.4c0.54,4.3,2.85,7.67,6.9,10.01
	c3.67,2.11,8.55,3.18,14.52,3.18c12.78,0,19.26-4.21,19.26-12.52c0-2.97-1.26-5.35-3.74-7.05c-2.27-1.56-5.14-2.86-8.52-3.86
	c-3.29-0.98-6.9-1.91-10.72-2.76c-3.73-0.83-7.26-1.91-10.48-3.22c-3.14-1.27-5.78-2.97-7.85-5.04c-1.99-1.99-2.95-4.63-2.95-8.07
	c0-4.98,1.85-8.92,5.66-12.05C404.34,2.59,410.25,1,418.09,1c7.91,0,14.08,1.82,18.35,5.41c3.6,2.91,5.59,6.47,6.07,10.87h-5.41
	c-0.99-5.27-4.69-8.83-11-10.61c-2.3-0.68-5.18-1.02-8.55-1.02c-3.39,0-6.3,0.4-8.65,1.18c-2.38,0.79-4.26,1.78-5.6,2.95
	c-1.38,1.2-2.33,2.57-2.81,4.05c-0.46,1.4-0.69,2.91-0.69,4.49c0,1.76,0.75,3.39,2.23,4.84c1.37,1.33,3.18,2.46,5.38,3.36
	c2.13,0.86,4.58,1.64,7.29,2.3c2.67,0.65,5.38,1.32,8.15,2c2.73,0.68,5.44,1.45,8.08,2.32c2.57,0.84,4.88,1.94,6.87,3.25
	c4.34,2.75,6.45,6.38,6.45,11.11c0,5.73-2.07,9.98-6.33,12.98C433.62,63.52,427.5,65.07,419.75,65.07z"/>
	<polygon points="455.6,64.28 455.6,1.78 501,1.78 501,6.64 460.75,6.64 460.75,30.51 496.7,30.51 496.7,35.46 
	460.75,35.46 460.75,59.43 501,59.43 501,64.28 	"/>
	<path d="M7.03,111.2h-2.9V85.62h2.9V111.2z"/>
	<path d="M43.08,85.62v25.58h-3.36L23.91,89.6v21.6h-2.9V85.62h3.36l15.81,21.52V85.62H43.08z"/>
	<path d="M75.23,88.4H66.3v22.8h-2.9V88.4h-8.93v-2.78h20.75V88.4z"/>
	<path d="M89.53,88.4v8.58h14.22v2.82H89.53v8.62h15.92v2.78H86.63V85.62h18.82v2.78H89.53z"/>
	<path d="M120.75,111.2h-2.9V85.62h12.25c2.6,0,4.69,0.72,6.26,2.16c1.57,1.42,2.36,3.36,2.36,5.84
	c0,3.2-1.33,5.37-3.98,6.53c-0.75,0.33-1.48,0.58-2.2,0.73l6.72,10.32h-3.44l-6.18-9.82h-8.89V111.2z M120.75,98.64h8.85
	c2.73,0,4.61-0.85,5.64-2.55c0.39-0.64,0.58-1.47,0.58-2.47c0-1.62-0.55-2.91-1.66-3.84c-1.11-0.94-2.58-1.41-4.4-1.41h-9V98.64z"
	/>
	<path d="M173.77,111.2h-3.21l-3.13-7.42h-12.68l-3.13,7.42h-3.21l10.86-25.58h3.63L173.77,111.2z M166.31,101.11
	l-5.22-12.48l-5.22,12.48H166.31z"/>
	<path d="M195.64,108.69c1.83,0,3.43-0.46,4.81-1.39c1.38-0.93,2.4-2.18,3.07-3.75h3.05
	c-0.85,2.42-2.25,4.33-4.21,5.72c-2.09,1.49-4.55,2.24-7.38,2.24c-3.74,0-6.76-1.28-9.08-3.83c-2.19-2.45-3.28-5.54-3.28-9.27
	c0-3.73,1.09-6.82,3.28-9.27c2.32-2.55,5.35-3.83,9.08-3.83c2.83,0,5.29,0.75,7.38,2.24c1.96,1.39,3.36,3.3,4.21,5.72h-3.05
	c-0.67-1.57-1.69-2.82-3.07-3.75c-1.38-0.93-2.98-1.39-4.81-1.39c-1.83,0-3.35,0.26-4.56,0.79c-1.21,0.53-2.23,1.25-3.05,2.18
	c-1.68,1.88-2.51,4.31-2.51,7.3s0.84,5.42,2.51,7.3C189.78,107.69,192.31,108.69,195.64,108.69z"/>
	<path d="M236.56,88.4h-8.93v22.8h-2.9V88.4h-8.93v-2.78h20.75V88.4z"/>
	<path d="M250.86,111.2h-2.9V85.62h2.9V111.2z"/>
	<path d="M285.87,85.62l-10.36,25.58h-3.32l-10.36-25.58H265l8.85,22.3l8.85-22.3H285.87z"/>
	<path d="M299.74,88.4v8.58h14.22v2.82h-14.22v8.62h15.92v2.78h-18.82V85.62h18.82v2.78H299.74z"/>
</g>
</svg>
